<svg width="127" height="127" viewBox="0 0 127 127" fill="none" xmlns="http://www.w3.org/2000/svg">
<g clip-path="url(#clip0)">
<path d="M38.7702 53.2L63.3702 28.6L87.9702 53.2L102.27 38.9L63.3702 0L24.4702 38.9L38.7702 53.2Z" fill="#F3BA2F"/>
<path d="M14.2743 49.0647L-0.00927734 63.3483L14.2743 77.6318L28.5578 63.3483L14.2743 49.0647Z" fill="#F3BA2F"/>
<path d="M38.7701 73.4L63.3701 98L87.9701 73.4L102.27 87.7L63.3701 126.6L24.4701 87.7H24.3701L38.7701 73.4Z" fill="#F3BA2F"/>
<path d="M112.281 49.0582L97.9971 63.3418L112.281 77.6254L126.564 63.3418L112.281 49.0582Z" fill="#F3BA2F"/>
<path d="M77.87 63.3L63.37 48.8L52.57 59.5L51.37 60.7L48.87 63.3H48.77H48.87L63.37 77.8L77.87 63.3Z" fill="#F3BA2F"/>
</g>
<defs>
<clipPath id="clip0">
<rect width="126.56" height="126.6" fill="white"/>
</clipPath>
</defs>
</svg>
