<svg width="19" height="19" viewBox="0 0 19 19" fill="none" xmlns="http://www.w3.org/2000/svg">
<g opacity="0.5">
<path d="M15.7314 4.5H6.73145C5.62688 4.5 4.73145 5.39543 4.73145 6.5V15.5C4.73145 16.6046 5.62688 17.5 6.73145 17.5H15.7314C16.836 17.5 17.7314 16.6046 17.7314 15.5V6.5C17.7314 5.39543 16.836 4.5 15.7314 4.5Z" stroke="black" stroke-width="2" stroke-linecap="round" stroke-linejoin="round"/>
<path d="M4.73145 14.5H3.73145C3.20101 14.5 2.6923 14.2893 2.31723 13.9142C1.94216 13.5391 1.73145 13.0304 1.73145 12.5V3.5C1.73145 2.96957 1.94216 2.46086 2.31723 2.08579C2.6923 1.71071 3.20101 1.5 3.73145 1.5H12.7314C13.2619 1.5 13.7706 1.71071 14.1457 2.08579C14.5207 2.46086 14.7314 2.96957 14.7314 3.5V4.5" stroke="black" stroke-width="2" stroke-linecap="round" stroke-linejoin="round"/>
</g>
</svg>
