<svg width="17" height="17" viewBox="0 0 17 17" fill="none" xmlns="http://www.w3.org/2000/svg">
<path d="M8.5 17C13.1944 17 17 13.1944 17 8.5C17 3.80558 13.1944 0 8.5 0C3.80558 0 0 3.80558 0 8.5C0 13.1944 3.80558 17 8.5 17Z" fill="#EFB80B"/>
<path d="M6.32599 7.6014L8.50431 5.42307L10.6826 7.6014L11.9488 6.33525L8.50431 2.89001L5.05908 6.33525L6.32599 7.6014Z" fill="white"/>
<path d="M4.15794 7.23531L2.89307 8.50018L4.15794 9.76505L5.42281 8.50018L4.15794 7.23531Z" fill="white"/>
<path d="M6.3265 9.3902L8.50482 11.5693L10.6831 9.3902L11.9493 10.6571L8.50482 14.1016L5.05959 10.6571H5.05127L6.3265 9.3902Z" fill="white"/>
<path d="M12.8357 7.23507L11.5708 8.49994L12.8357 9.76481L14.1005 8.49994L12.8357 7.23507Z" fill="white"/>
<path d="M9.78835 8.49621L8.50481 7.21191L7.54801 8.15963L7.44212 8.26552L7.2205 8.49621H7.21143H7.2205L8.50481 9.77976L9.78835 8.49621Z" fill="white"/>
</svg>
