<svg width="17" height="17" viewBox="0 0 17 17" fill="none" xmlns="http://www.w3.org/2000/svg">
<path d="M8.5 17C13.1944 17 17 13.1944 17 8.5C17 3.80558 13.1944 0 8.5 0C3.80558 0 0 3.80558 0 8.5C0 13.1944 3.80558 17 8.5 17Z" fill="#323232"/>
<path d="M12.1635 6.18812C12.1635 6.29372 12.0921 6.33475 12.0412 6.38565C10.1575 8.2764 8.27386 10.1666 6.3902 12.0564C6.27168 12.1757 6.19419 12.2144 6.05744 12.0708C5.69124 11.6864 5.31365 11.3111 4.92998 10.9441C4.79398 10.8142 4.81222 10.7367 4.93682 10.6121C6.82402 8.72591 8.70843 6.83643 10.5901 4.94366C10.7078 4.82514 10.7861 4.78335 10.9228 4.92846C11.289 5.31365 11.6704 5.68365 12.045 6.05972C12.089 6.10682 12.1301 6.15165 12.1635 6.18812Z" fill="#EEB72F"/>
<path d="M14.4717 8.51444C14.4102 8.5813 14.3623 8.63904 14.3092 8.69146C12.4402 10.5614 10.5727 12.4319 8.70682 14.3029C8.53208 14.4792 8.44167 14.4549 8.28972 14.2915C7.95164 13.9322 7.60139 13.5842 7.24356 13.2454C7.09161 13.1033 7.07413 13.0174 7.23368 12.8571C9.11683 10.9831 10.9954 9.10577 12.8695 7.22516C12.9857 7.10816 13.0655 7.06181 13.203 7.20616C13.5783 7.59895 13.9696 7.9773 14.3525 8.36325C14.3952 8.4112 14.4351 8.46169 14.4717 8.51444Z" fill="#EEB72F"/>
<path d="M9.8999 3.90888C9.88926 4.02664 9.80645 4.07299 9.74795 4.13681C8.63366 5.2511 7.5181 6.36766 6.40128 7.48651C6.26985 7.61795 6.18704 7.64985 6.04268 7.49563C5.68814 7.11981 5.32144 6.75437 4.94258 6.39932C4.79063 6.25649 4.81874 6.1714 4.95169 6.04072C6.06953 4.92592 7.18559 3.80834 8.29988 2.68798C8.44499 2.54211 8.5354 2.51552 8.68963 2.67886C9.03531 3.04658 9.40151 3.3953 9.75783 3.75238C9.80949 3.80556 9.85811 3.86254 9.8999 3.90888Z" fill="#EEB72F"/>
<path d="M5.36855 8.4924C5.31157 8.55546 5.26371 8.61396 5.21129 8.66714C4.84661 9.0341 4.47586 9.39497 4.11878 9.76953C3.9843 9.91084 3.89693 9.92148 3.75866 9.77333C3.40411 9.39801 3.03817 9.03207 2.66083 8.6755C2.50888 8.53115 2.53775 8.44758 2.67223 8.31538C3.0445 7.95678 3.40538 7.58527 3.7731 7.22211C3.85743 7.1393 3.92884 7.01014 4.07699 7.16133C4.47358 7.5678 4.88004 7.96438 5.28118 8.36628C5.31387 8.40574 5.3431 8.44793 5.36855 8.4924Z" fill="#EEB72F"/>
</svg>
