<svg width="17" height="17" viewBox="0 0 17 17" fill="none" xmlns="http://www.w3.org/2000/svg">
<path d="M8.5 0C13.1944 0 17 3.80556 17 8.5C17 13.1944 13.1944 17 8.5 17C3.80556 17 0 13.1944 0 8.5C0 3.80556 3.80556 0 8.5 0Z" fill="#3A62A6"/>
<path d="M13.8278 4.74445H13.8334C13.7667 4.73889 13.6945 4.73889 13.6278 4.73889C12.5389 4.73889 11.4667 5.28334 10.8278 6.16667C10.6056 6.47222 10.4389 6.81111 10.2611 7.14445C10.1056 7.43333 9.93891 7.71667 9.76113 7.99444C9.59447 8.25556 9.4278 8.57222 9.18891 8.77778C9.03891 8.90556 8.84447 8.95 8.65002 8.95C8.39447 8.95 8.16113 8.84445 7.99447 8.67222C7.86113 8.53889 7.78335 8.35 7.68891 8.18889L6.81669 6.69445C6.25558 5.53334 5.06669 4.73889 3.69447 4.73889C3.51669 4.73889 3.33891 4.75 3.16113 4.77778C3.16113 4.77778 4.3278 4.86667 5.16113 6.45C5.29447 6.7 5.42224 6.95 5.54447 7.2C5.56669 7.24445 5.58891 7.29445 5.61669 7.33889C5.91113 7.92222 6.21669 8.5 6.51113 9.08333C6.66113 9.38333 6.84447 9.65556 7.07224 9.87222C7.26669 10.05 7.49447 10.1889 7.77224 10.2667C7.98891 10.3278 8.21113 10.3444 8.43335 10.3222C9.43335 10.2167 10.0667 9.4 10.4056 8.51667C10.6111 7.96667 10.6389 7.37222 10.8722 6.83333C10.95 6.66111 11.0389 6.48889 11.1389 6.33334C11.35 6.01111 11.6111 5.71667 11.9167 5.48334C12.4334 5.07778 13.1111 4.75 13.7278 4.75C13.7667 4.73889 13.8 4.73889 13.8278 4.74445Z" fill="#B9DAF7"/>
<path d="M11.9222 5.47223C11.6167 5.70557 11.3556 6.00001 11.1445 6.32223C11.0445 6.48334 10.95 6.65001 10.8778 6.82223C10.6445 7.36112 10.6167 7.96112 10.4111 8.50556C10.0778 9.3889 9.44446 10.2056 8.43891 10.3111C8.21669 10.3333 7.99447 10.3167 7.7778 10.2556C7.50002 10.1778 7.27224 10.0389 7.0778 9.86112C6.84447 9.64445 6.66669 9.37223 6.51669 9.07223C6.22224 8.4889 5.91669 7.91112 5.62224 7.32779C5.60002 7.28334 5.5778 7.23334 5.55002 7.1889C5.4278 6.9389 5.30002 6.6889 5.16669 6.4389C4.3278 4.86668 3.16113 4.77779 3.16113 4.77779L4.75002 7.51112C6.00558 9.66668 7.26113 11.8167 8.51113 13.9722C10.3 10.9056 12.0667 7.82779 13.8222 4.74445C13.7889 4.74445 13.7611 4.74445 13.7278 4.74445C13.1167 4.7389 12.4389 5.06668 11.9222 5.47223Z" fill="white" stroke="white" stroke-width="0.5" stroke-miterlimit="288"/>
</svg>
